<?xml version="1.0" encoding="iso-8859-1"?>
<!-- Generator: Adobe Illustrator 16.0.0, SVG Export Plug-In . SVG Version: 6.00 Build 0)  -->
<!DOCTYPE svg PUBLIC "-//W3C//DTD SVG 1.1//EN" "http://www.w3.org/Graphics/SVG/1.1/DTD/svg11.dtd">
<svg version="1.1" id="Layer_1" xmlns="http://www.w3.org/2000/svg" xmlns:xlink="http://www.w3.org/1999/xlink" x="0px" y="0px"
	 width="584.098px" height="771.733px" viewBox="224.419 99.761 584.098 771.733"
	 style="enable-background:new 224.419 99.761 584.098 771.733;" xml:space="preserve">
<path style="fill:#DF4723;stroke:#DF4723;stroke-width:0.0938;" d="M536.9,99.9c6.8,5.2,12.7,11.6,19.2,17.2
	c58.7,55.4,112.5,116.6,155.8,184.9c41.9,66.1,74.101,139.2,88.4,216.4c7.899,42.3,10.5,85.699,5.899,128.5
	C804.1,664.8,801,682.7,795.3,699.8c-8,24.8-18.5,48.9-32.9,70.7C750,789.3,734.5,806.1,716.6,819.7
	C696.9,834.6,674.4,845.5,651,853c-29.101,9.3-59.601,13.9-90,16.4c-36.301,2.699-72.801,3.199-109-1.4c-41-5.1-81.7-16-118.2-35.7
	c-33.8-18.2-63.5-44.899-82.6-78.5C229.1,715.4,221.8,669.9,225.3,626c3.6-46.5,18.4-91.6,38-133.7c17-36.2,37.8-70.5,60.899-103.1
	c19.7-27.6,40.9-54.1,64.101-78.9c0.399-0.3,1.2-1,1.7-1.3c-0.4,20.9,1.6,41.9,7.6,62c6.1,20.5,16.4,39.8,30.1,56.3
	c0.801,1,1.4,2.4,2.9,2.601c29.7-22.3,57.8-47.3,79.7-77.4C533,321.4,548.199,285,554,246.9C561.699,197.6,555.1,146.3,536.9,99.9z"
	/>
</svg>
